<svg id="Layer_1" data-name="Layer 1" xmlns="http://www.w3.org/2000/svg" viewBox="0 0 320.53098 319.71516"><defs><style>.cls-1{fill:#e95521;}.cls-2{fill:#fff;}</style></defs><rect class="cls-1" width="320.53098" height="319.71516"/><path class="cls-2" d="M166.35845,204.81012a26.35006,26.35006,0,1,1,16.97813-46.61241l.27384.271a26.299,26.299,0,0,1,2.87534,37.12733A26.579,26.579,0,0,1,166.35845,204.81012Z"/><path class="cls-2" d="M137.74205,154.13263a40.803,40.803,0,0,1,11.36441-9.0786l-61.06655-49.458A27.61467,27.61467,0,0,1,74.6217,109.95922L134.456,158.46864A51.70624,51.70624,0,0,1,137.74205,154.13263Z"/><path class="cls-2" d="M191.00414,149.79661a36.77464,36.77464,0,0,1,7.11987,8.13008L221.4005,135.298c-.68461-.271-1.36921-.67751-2.05381-.94853a25.62721,25.62721,0,0,1-11.22748-13.55012l-24.6457,24.11924A39.694,39.694,0,0,1,191.00414,149.79661Z"/><path class="cls-2" d="M166.49537,140.85353h0a35.8271,35.8271,0,0,1,9.31059,1.2195l-.41077-55.82651a26.13148,26.13148,0,0,1-19.71656,0l.41077,55.962A45.67843,45.67843,0,0,1,166.49537,140.85353Z"/><path class="cls-2" d="M245.08775,176.62584l-42.17152-7.18155a37.65479,37.65479,0,0,1-.27384,19.10569l37.79007,6.504a25.59551,25.59551,0,0,1,4.65529-18.42818Z"/><path class="cls-2" d="M141.84967,206.97811a40.16762,40.16762,0,0,1-3.423-3.38753l-16.43047,31.4363a24.50013,24.50013,0,0,1,17.66275,8.53657l15.3351-29.40379A33.75631,33.75631,0,0,1,141.84967,206.97811Z"/><path class="cls-2" d="M194.56409,203.3196a37.928,37.928,0,0,1-16.5674,10.8401L194.15332,245.325a9.10159,9.10159,0,0,0,.95844,1.49052,24.25665,24.25665,0,0,1,17.252-8.67207,8.24227,8.24227,0,0,0-.6846-1.626Z"/><path class="cls-2" d="M130.48527,167.27627l-36.0101,8.67207A24.81309,24.81309,0,0,1,98.309,195.054l31.49172-7.58808A37.46529,37.46529,0,0,1,130.48527,167.27627Z"/><ellipse class="cls-2" cx="61.47732" cy="84.485" rx="17.52583" ry="17.34416"/><ellipse class="cls-2" cx="165.53693" cy="62.1273" rx="14.6505" ry="14.49863"/><ellipse class="cls-2" cx="231.80647" cy="112.94026" rx="13.55512" ry="13.41461"/><ellipse class="cls-2" cx="265.21507" cy="191.26" rx="13.55512" ry="13.41461"/><ellipse class="cls-2" cx="213.73296" cy="262.26264" rx="12.73361" ry="12.6016"/><ellipse class="cls-2" cx="121.31159" cy="259.14609" rx="12.87053" ry="12.73711"/><ellipse class="cls-2" cx="73.93709" cy="190.04046" rx="13.55513" ry="13.41461"/></svg>